<svg xmlns="http://www.w3.org/2000/svg" viewBox="0 0 779.9 162.4">
<style type="text/css">
	.st0{fill:#333666;}
	.st1{fill:none;stroke:#FAA734;stroke-width:12;stroke-miterlimit:10;}
	.st2{fill:#8DC63F;}
	.st3{fill:#FFFFFF;}
</style>
<g>
	<g>
		<g>
			<g>
				<path class="st0" d="M169.8,44V19.7c0-1.3,1-2.3,2.2-2.3h0c0,0,0,0,0.1,0h13.1c1.2,0,2.2,1,2.2,2.3c0,1.3-1.1,2.3-2.2,2.3h-11      v7.5h9.4c1.2,0,2.2,1.1,2.2,2.3c0,1.3-1,2.3-2.2,2.3h-9.4v7.6h11c1.2,0,2.2,1,2.2,2.3c0,1.2-1.1,2.3-2.2,2.3h-13.1      c-0.1,0-0.1,0-0.1,0l0,0C170.8,46.2,169.8,45.2,169.8,44z"/>
				<path class="st0" d="M201.9,44V19.7c0-1.2,1-2.3,2.2-2.3s2.3,1,2.3,2.3v21.9h11c1.2,0,2.2,1,2.2,2.3c0,1.2-1.1,2.3-2.2,2.3      h-13.1c-0.1,0-0.1,0-0.1,0c0,0,0,0,0,0C202.9,46.2,201.9,45.2,201.9,44z"/>
				<path class="st0" d="M257.2,19.7V44c0,1.2-1.1,2.3-2.3,2.3c-1.3,0-2.2-1-2.2-2.3V26.7l-5.8,8.2c-0.4,0.6-1.1,0.9-1.8,0.9h0h0      c-0.7,0-1.4-0.3-1.9-0.9l-5.8-8.2V44c0,1.2-1,2.3-2.3,2.3c-1.2,0-2.2-1-2.2-2.3V19.7c0-1.2,1-2.3,2.2-2.3c0,0,0,0,0.1,0      c0.6,0,1.4,0.3,1.8,0.9l8.1,11.3l8.1-11.3c0.4-0.6,1.1-0.9,1.8-0.9c0,0,0,0,0,0C256.2,17.5,257.2,18.5,257.2,19.7z"/>
				<path class="st0" d="M282.4,39.1c0.7-0.9,2.1-1,3-0.3c1.8,1.5,4.9,3.2,7.7,3.2c2,0,3.9-0.6,5.1-1.5c1.2-0.9,1.7-1.9,1.7-3      c0-0.5-0.1-0.9-0.4-1.3c-0.2-0.4-0.6-0.8-1.2-1.2c-1.2-0.8-3.2-1.5-5.6-1.9h-0.1c-1.9-0.4-3.7-0.9-5.2-1.6      c-1.5-0.7-2.9-1.8-3.8-3.2c-0.6-1-0.9-2.1-0.9-3.4c0-2.5,1.4-4.6,3.2-6c1.9-1.4,4.4-2.2,7-2.2c3.9,0,6.8,1.9,8.8,3.3      c0.9,0.7,1.2,2,0.6,2.9c-0.6,1-1.9,1.3-2.9,0.6c-2.1-1.4-4.1-2.6-6.5-2.6c-1.8,0-3.4,0.6-4.5,1.4c-1.1,0.8-1.5,1.7-1.5,2.6      c0,0.5,0.1,0.8,0.3,1.1c0.2,0.3,0.6,0.7,1.1,1.1c1.1,0.7,2.9,1.4,5.1,1.8h0.1c2.1,0.4,4,0.9,5.6,1.7c1.7,0.8,3.1,1.9,4.1,3.4      c0.6,1,1,2.2,1,3.5c0,2.6-1.5,4.9-3.5,6.4c-2,1.5-4.6,2.3-7.5,2.3c-4.4,0-8.1-2.3-10.4-4.1C281.8,41.3,281.7,40,282.4,39.1z"/>
				<path class="st0" d="M334.1,22h-6.4V44c0,1.3-1,2.3-2.2,2.3c-1.2,0-2.2-1-2.2-2.3V22h-6.4c-1.3,0-2.2-1.1-2.2-2.3      c0-1.3,1-2.3,2.2-2.3h17.3c1.2,0,2.2,1,2.2,2.3C336.4,21,335.3,22,334.1,22z"/>
				<path class="st0" d="M368.3,42.8c0.4,1.2-0.2,2.5-1.4,2.9c-0.2,0-0.5,0.1-0.9,0.1c0,0,0,0,0,0c-0.4,0-1-0.1-1.6-0.5      c-0.5-0.3-1-0.9-1.3-1.4c-0.6-1.2-0.9-2.7-0.9-4.9c0-0.8-0.2-1.3-0.5-1.8c-0.2-0.5-0.7-0.9-1.2-1.2c-0.9-0.6-1.9-0.9-2.3-1h-4.8      V44c0,1.2-1,2.3-2.3,2.3c-1.3,0-2.2-1-2.2-2.3V19.7c0-1.3,1-2.3,2.2-2.3c0,0,0,0,0,0h7.2c4.8,0,8.7,3.9,8.7,8.8      c0,2.7-1.2,5.1-3.2,6.7c0.5,0.4,1,0.9,1.4,1.5c0.8,1.2,1.3,2.7,1.3,4.4c0,1.2,0.1,2,0.2,2.4C367.5,41.6,368,42.1,368.3,42.8z       M362.6,26.3c0-2.4-1.9-4.3-4.2-4.3h-5v8.5h5C360.7,30.5,362.6,28.6,362.6,26.3z"/>
				<path class="st0" d="M381.9,44V19.7c0-1.3,1-2.3,2.2-2.3h0c0,0,0,0,0.1,0h13.1c1.2,0,2.2,1,2.2,2.3c0,1.3-1.1,2.3-2.2,2.3h-11      v7.5h9.4c1.2,0,2.2,1.1,2.2,2.3c0,1.3-1,2.3-2.2,2.3h-9.4v7.6h11c1.2,0,2.2,1,2.2,2.3c0,1.2-1.1,2.3-2.2,2.3h-13.1      c-0.1,0-0.1,0-0.1,0l0,0C382.9,46.2,381.9,45.2,381.9,44z"/>
				<path class="st0" d="M414.1,44V30.5V19.7c0-1.3,1-2.3,2.2-2.3h0c0,0,0,0,0.1,0h13.1c1.2,0,2.2,1,2.2,2.3c0,1.3-1.1,2.3-2.2,2.3      h-11v7.5h9.4c1.2,0,2.2,1.1,2.2,2.3c0,1.3-1,2.3-2.2,2.3h-9.4v7.6h11c1.2,0,2.2,1,2.2,2.3c0,1.2-1.1,2.3-2.2,2.3h-13.1      c-0.1,0-0.1,0-0.1,0l0,0C415.1,46.2,414.1,45.2,414.1,44z"/>
				<path class="st0" d="M463.6,22h-6.4V44c0,1.3-1,2.3-2.2,2.3c-1.2,0-2.2-1-2.2-2.3V22h-6.4c-1.3,0-2.2-1.1-2.2-2.3      c0-1.3,1-2.3,2.2-2.3h17.3c1.2,0,2.2,1,2.2,2.3C465.8,21,464.8,22,463.6,22z"/>
			</g>
		</g>
		<path class="st1" d="M199.3-24.7"/>
	</g>
	<g>
		<path class="st2" d="M170.8,72.8c0-3.1,2.4-5.5,5.5-5.5c3,0,5.6,2.4,5.6,5.5v59.3c0,3.1-2.6,5.5-5.6,5.5c-3.1,0-5.5-2.4-5.5-5.5    V72.8z"/>
		<path class="st2" d="M205.8,132.2V72.8c0-3.1,2.4-5.5,5.5-5.5h11.9c19.4,0,35.1,15.8,35.1,35.1c0,19.5-15.7,35.3-35.1,35.3h-11.9    C208.2,137.7,205.8,135.2,205.8,132.2z M216.9,126.5h6.2c13.3-0.1,23.9-10.8,23.9-24.1c0-13.2-10.7-23.9-23.9-23.9h-6.2V126.5z"/>
		<path class="st2" d="M328,76.9l-19.1,25.9l19.1,26.1c1.7,2.4,1.3,5.9-1.2,7.6c-1,0.7-2.1,1.1-3.2,1.1c-1.8,0-3.4-0.9-4.5-2.3    l-16.9-23.2l-17,23.2c-1.1,1.4-2.7,2.3-4.4,2.3c-1.2,0-2.3-0.4-3.2-1.1c-2.5-1.7-3-5.2-1.3-7.6l19.1-26.1l-19.1-25.9    c-1.7-2.5-1.2-5.9,1.3-7.6c2.4-1.9,5.9-1.4,7.6,1.2l17,23.1L319,70.4c1.9-2.6,5.2-3.1,7.7-1.2C329.3,70.9,329.7,74.3,328,76.9z"/>
		<path class="st0" d="M355.2,132.2V72.8c0-3.1,2.5-5.5,5.5-5.5c0.1,0,0.1,0,0.3,0c0,0,0,0,0.1,0H375c10.6,0,19.1,8.5,19.1,19.1    c0,4.3-1.4,8.2-3.8,11.5c6,3.8,10.2,10.6,10.2,18.2c0,12-9.7,21.6-21.5,21.6h-17.8c-0.1,0-0.1-0.1-0.1-0.1c-0.2,0-0.2,0.1-0.3,0.1    C357.7,137.7,355.2,135.2,355.2,132.2z M366.4,94.6h8.6c4.4,0,7.9-3.7,7.9-8.1s-3.5-7.9-7.9-7.9h-8.6V94.6z M366.4,126.5H379    c5.7-0.1,10.4-4.6,10.4-10.5c0-5.7-4.6-10.3-10.4-10.4h-12.6V126.5z"/>
		<path class="st0" d="M466.6,129.4c1,2.9-0.6,6-3.5,7c-0.4,0.1-1.2,0.3-2.2,0.3c0,0,0,0-0.1,0c-1,0-2.5-0.2-3.9-1.1    c-1.3-0.8-2.4-2.1-3.2-3.5c-1.4-2.9-2.1-6.5-2.1-12.1c-0.1-1.9-0.5-3.2-1.2-4.3c-0.6-1.1-1.8-2.1-3-2.9c-2.1-1.4-4.7-2.2-5.6-2.4    h-11.9v21.8c0,3-2.5,5.5-5.6,5.5c-3.1,0-5.5-2.5-5.5-5.5V72.8c0-3.1,2.4-5.5,5.5-5.5c0,0,0,0,0.1,0h17.9c12,0,21.5,9.7,21.5,21.6    c0,6.6-3,12.5-7.8,16.5c1.3,1,2.5,2.2,3.5,3.7c2,2.9,3.3,6.6,3.3,10.9c-0.1,3,0.2,4.9,0.4,5.9    C464.6,126.4,465.9,127.6,466.6,129.4z M452.5,88.9c0-5.8-4.6-10.5-10.4-10.5h-12.4v20.7h12.4C447.8,99.2,452.5,94.6,452.5,88.9z"/>
		<path class="st0" d="M541.7,76c6.2,6.6,10.2,15.5,10.2,25.4s-3.9,18.9-10.2,25.4c-5.9,6.5-14.8,10.8-24,10.8    c-9.7,0-18.5-4.2-24.6-10.8c-6.2-6.5-10-15.5-10-25.4s3.7-18.8,10-25.4c6.1-6.6,15-10.8,24.6-10.8C526.9,65.3,535.7,69.4,541.7,76    z M540.4,101.5c0-6.8-2.7-13.2-6.8-17.6c-4.2-4.5-9.9-7.1-15.9-7.1c-6.4,0-12.1,2.6-16.3,7.1c-4.2,4.4-6.8,10.8-6.8,17.6    s2.6,13.2,6.8,17.5c4.2,4.5,9.9,7.2,16.3,7.2c6,0,11.7-2.7,15.9-7.2C537.7,114.7,540.4,108.3,540.4,101.5z"/>
		<path class="st0" d="M568.6,132.2V73.3c0-2.9,2.4-5.5,5.5-5.5c3.1,0,5.5,2.6,5.5,5.5v28.9l32.6-32.7c2.2-2.2,5.6-2.2,7.8,0    c2.1,2.1,2.1,5.6,0,7.8l-22.1,22l22.3,29.3c2,2.3,1.6,5.8-0.8,7.7c-1,0.9-2.2,1.3-3.5,1.3c-1.5,0-3-0.7-4.1-2l-21.7-28.5    l-10.5,10.7v14.3c0,3-2.4,5.5-5.5,5.5C571.1,137.7,568.6,135.2,568.6,132.2z"/>
		<path class="st0" d="M645.6,132.2V72.8c0-3.1,2.4-5.5,5.5-5.5h0.1c0,0,0,0,0.2,0H684c2.9,0,5.5,2.4,5.5,5.5s-2.6,5.6-5.5,5.6    h-27.3v18.4h23.4c3,0,5.5,2.6,5.5,5.5c0,3.1-2.5,5.6-5.5,5.6h-23.4v18.5H684c2.9,0,5.5,2.5,5.5,5.6c0,3-2.6,5.5-5.5,5.5h-32.6    c-0.2,0-0.2-0.1-0.2-0.1l-0.1,0.1C648,137.7,645.6,135.2,645.6,132.2z"/>
		<path class="st0" d="M758.8,129.4c1,2.9-0.6,6-3.5,7c-0.4,0.1-1.2,0.3-2.2,0.3c0,0,0,0-0.1,0c-1,0-2.5-0.2-3.9-1.1    c-1.3-0.8-2.4-2.1-3.2-3.5c-1.4-2.9-2.1-6.5-2.1-12.1c-0.1-1.9-0.5-3.2-1.2-4.3c-0.6-1.1-1.8-2.1-3-2.9c-2.1-1.4-4.7-2.2-5.6-2.4    H722v21.8c0,3-2.5,5.5-5.6,5.5c-3.1,0-5.5-2.5-5.5-5.5V72.8c0-3.1,2.4-5.5,5.5-5.5c0,0,0,0,0.1,0h17.9c12,0,21.5,9.7,21.5,21.6    c0,6.6-3,12.5-7.8,16.5c1.3,1,2.5,2.2,3.5,3.7c2,2.9,3.3,6.6,3.3,10.9c-0.1,3,0.2,4.9,0.4,5.9    C756.9,126.4,758.2,127.6,758.8,129.4z M744.7,88.9c0-5.8-4.6-10.5-10.4-10.5H722v20.7h12.4C740.1,99.2,744.7,94.6,744.7,88.9z"/>
	</g>
	<circle class="st2" cx="78.8" cy="80.7" r="66.9"/>
	<path class="st3" d="M128.2,124.6L85.4,83l33.3-33.3l-30.9-0.2L69.6,67.7L50.8,49.5l-30.9,0.2l33.9,33.8l-32.1,32.1   c0,0,4.5,8.3,14.4,16.7l33.2-33.2l25.6,25.5C102.8,124.6,128.2,124.6,128.2,124.6z"/>
</g>
<script xmlns=""/></svg>