<svg xmlns="http://www.w3.org/2000/svg" viewBox="0 0 97.11 36.16"><defs><style>.cls-1{fill:#8cc241;}.cls-2{fill:#263d8c;}.cls-3{fill:#2568ad;}</style></defs><title>Asset 5</title><g id="Layer_2" data-name="Layer 2"><g id="Layer_3" data-name="Layer 3"><g id="screen"><g id="Layer_1_copy" data-name="Layer 1 copy"><path class="cls-1" d="M58.63,0,69.77,12.69,81,0H96.26L78.86,17.89,97.11,36.16H81.61l-11.84-13L58,36.15H42.15c2.46,0,4.32-.07,5.6-.16a33.46,33.46,0,0,0,5-.7,8.51,8.51,0,0,0,6.65-5.88,20.15,20.15,0,0,0,.94-4.53c.17-1.67.25-4.11.25-7.34,0-2.95-.07-5.15-.21-6.62a19.15,19.15,0,0,0-.82-4.08A8.73,8.73,0,0,0,52.53.69,29.4,29.4,0,0,0,48,.11C47.16.06,45.66,0,43.55,0Z"/><rect class="cls-2" width="11.58" height="36.16"/><path class="cls-3" d="M13.22,36.16V0h26.1l4.59,0L61,17.89,42.5,36.15H13.22Zm10.86-9.22H39.42a49,49,0,0,0,6.24-.28,5.59,5.59,0,0,0,2.82-1,4.18,4.18,0,0,0,1.27-2.43,24.79,24.79,0,0,0,.38-5,29.76,29.76,0,0,0-.32-5,5.54,5.54,0,0,0-1.11-2.6,4.47,4.47,0,0,0-2.62-1.26A50.87,50.87,0,0,0,39.32,9H24.08Z"/><path class="cls-2" d="M42.5,36.15,61,17.89,43.91,0c2.11,0,3.6,0,4.49.1a29.12,29.12,0,0,1,4.48.58A8.75,8.75,0,0,1,60,6.84a20.47,20.47,0,0,1,.82,4.08c.13,1.47.21,3.67.21,6.61,0,3.24-.09,5.68-.26,7.35a20.15,20.15,0,0,1-.94,4.53,8.51,8.51,0,0,1-6.64,5.88,33.83,33.83,0,0,1-5,.7C46.83,36.08,45,36.13,42.5,36.15Z"/></g></g></g></g></svg>