<?xml version="1.0" encoding="utf-8"?>
<!-- Generator: Adobe Illustrator 25.1.0, SVG Export Plug-In . SVG Version: 6.00 Build 0)  -->
<svg version="1.1" id="Layer_1" xmlns="http://www.w3.org/2000/svg" xmlns:xlink="http://www.w3.org/1999/xlink" x="0px" y="0px"
	 viewBox="0 0 433 350" style="enable-background:new 0 0 433 350;" xml:space="preserve">
<style type="text/css">
	.st0{fill:#2D93C9;}
	.st1{fill:#FFFFFF;}
	.st2{fill:#DCE9F6;}
	.st3{fill:#C8DDED;}
	.st4{fill:#EFF5F9;}
	.st5{fill:#29435F;}
	.st6{fill:#4BC4E7;}
	.st7{fill:#94D6EA;}
	.st8{fill:#485059;}
	.st9{fill:#1F364E;}
	.st10{fill:#50687F;}
</style>
<ellipse class="st0" cx="223.51" cy="324.34" rx="202.5" ry="21.09"/>
<g>
	<path class="st1" d="M20.45,143.5c1.12,0,2.22,0.11,3.27,0.34c0-0.07-0.01-0.12-0.01-0.18c0-14.53,11.78-26.3,26.3-26.3
		c12.27,0,22.57,8.4,25.48,19.76c1.34-0.29,2.72-0.45,4.14-0.45c10.61,0,19.21,8.6,19.21,19.21c0,10.61-8.6,19.19-19.21,19.19H20.45
		c-8.72,0-15.79-7.06-15.79-15.79C4.66,150.57,11.73,143.5,20.45,143.5z"/>
	<path class="st1" d="M346.02,191.69c0.75,0,1.48,0.08,2.18,0.23c0-0.04,0-0.08,0-0.12c0-9.7,7.86-17.55,17.55-17.55
		c8.19,0,15.07,5.61,17,13.19c0.9-0.2,1.82-0.3,2.77-0.3c7.08,0,12.82,5.74,12.82,12.82c0,7.08-5.74,12.81-12.82,12.81h-39.5
		c-5.82,0-10.54-4.71-10.54-10.54C335.48,196.4,340.2,191.69,346.02,191.69z"/>
	<path class="st1" d="M242.88,60.7c0.02,0,0.03,0,0.04,0c-0.01-0.52-0.04-1.04-0.04-1.57c0-30.29,24.56-54.84,54.84-54.84
		c24.77,0,45.69,16.42,52.5,38.96c4.13-1.95,8.75-3.04,13.61-3.04c17.66,0,31.97,14.31,31.97,31.97c0,4.07-0.77,7.95-2.15,11.53
		c0.35-0.02,0.7-0.05,1.05-0.05c11.32,0,20.5,9.18,20.5,20.49s-9.18,20.5-20.5,20.5H242.88c-17.66,0-31.97-14.31-31.97-31.97
		C210.9,75.02,225.22,60.7,242.88,60.7z"/>
</g>
<g>
	<g>
		<g>
			<polygon class="st2" points="247.79,311.64 182.12,311.64 190.45,271.04 239.44,271.04 			"/>
			<polygon class="st3" points="247.79,311.64 239.44,271.04 190.45,271.04 231.05,311.64 			"/>
			<rect x="164.54" y="311.64" class="st4" width="100.83" height="4.91"/>
		</g>
		<path class="st5" d="M95.07,103.99c-3.36,0-6.12,2.77-6.12,6.13v154.78c0,3.38,2.76,6.13,6.12,6.13h239.77
			c3.38,0,6.15-2.76,6.15-6.13V110.13c0-3.37-2.77-6.13-6.15-6.13H95.07z"/>
		<g>
			<rect x="101.68" y="116.73" class="st1" width="226.55" height="141.58"/>
			<rect x="111.12" y="124.65" class="st6" width="62.68" height="18.79"/>
			<rect x="183.63" y="124.65" class="st2" width="136.69" height="18.79"/>
			<rect x="109.61" y="230.65" class="st2" width="210.71" height="6.2"/>
			<rect x="109.61" y="244.2" class="st2" width="210.71" height="6.18"/>
			<rect x="109.61" y="187.55" class="st7" width="62.68" height="35.76"/>
			<rect x="183.63" y="187.55" class="st7" width="62.68" height="35.76"/>
			<rect x="257.63" y="187.55" class="st7" width="62.69" height="35.76"/>
			<rect x="109.61" y="150.79" class="st8" width="210.71" height="29.41"/>
		</g>
	</g>
	<path class="st3" d="M131.94,185.65c-0.18-0.23-0.35-0.45-0.58-0.59c-2.08-2.02-4.95-3.22-8.05-3.22H88.95v83.07
		c0,3.38,2.76,6.13,6.12,6.13h122.29L131.94,185.65z"/>
	<g>
		<path class="st5" d="M69.83,316.55c-5.06,0-9.2-4.13-9.2-9.2V193.7c0-5.07,4.14-9.21,9.2-9.21h53.45c5.05,0,9.2,4.15,9.2,9.21
			v113.65c0,5.07-4.15,9.2-9.2,9.2H69.83z"/>
		<path class="st9" d="M104.52,307.03c0,1.21-0.97,2.2-2.19,2.2H90.78c-1.19,0-2.2-0.99-2.2-2.2v-0.92c0-1.21,1-2.21,2.2-2.21h11.55
			c1.22,0,2.19,1,2.19,2.21V307.03z"/>
		<path class="st9" d="M99.22,194.46c0,1.46-1.17,2.66-2.65,2.66c-1.48,0-2.66-1.19-2.66-2.66c0-1.46,1.18-2.65,2.66-2.65
			C98.05,191.8,99.22,193,99.22,194.46z"/>
		<path class="st10" d="M97.81,194.46c0,0.69-0.54,1.25-1.23,1.25c-0.69,0-1.26-0.56-1.26-1.25c0-0.69,0.57-1.25,1.26-1.25
			C97.27,193.21,97.81,193.77,97.81,194.46z"/>
		<g>
			<rect x="65.84" y="204.45" class="st1" width="61.43" height="92.15"/>
			<rect x="70.58" y="209.17" class="st6" width="51.98" height="7.94"/>
			<rect x="70.58" y="283.53" class="st2" width="51.98" height="2.61"/>
			<rect x="70.58" y="289.26" class="st2" width="51.98" height="2.61"/>
			<rect x="70.58" y="239.7" class="st7" width="51.98" height="40.73"/>
			<rect x="70.58" y="220.21" class="st8" width="51.98" height="16.38"/>
		</g>
	</g>
</g>
</svg>
